<?xml version="1.0" encoding="utf-8"?>
<!-- Generator: Adobe Illustrator 26.0.3, SVG Export Plug-In . SVG Version: 6.00 Build 0)  -->
<svg width="198" height="128" version="1.0" id="Layer_1" xmlns="http://www.w3.org/2000/svg" xmlns:xlink="http://www.w3.org/1999/xlink" x="0px" y="0px"
	 viewBox="0 0 351 257" style="enable-background:new 0 0 351 257;" xml:space="preserve">
<style type="text/css">
	.st0{fill:#0088CE;}
	.st1{fill:#000006;}
</style>
<path class="st0" d="M120.8,168.8H87.5c0.1-52.8,14-86.3,14-86.3C97.1,139.2,120.8,168.8,120.8,168.8z M255.2,43.7
	c0,0-105.7,41.7-125.2,125.1h89C218.9,168.8,155,152,255.2,43.7z"/>
<path class="st1" d="M149.6,191.3v5h0.1c1.2-3.4,4.5-5.6,8.1-5.3v2.2c-2.2,0.1-4.2,1-5.8,2.5c-0.7,0.7-1.3,1.5-1.6,2.5
	c-0.4,1-0.6,2.1-0.6,3.1v11.4h-2.6v-21.4L149.6,191.3L149.6,191.3z M134.1,191.3v21.4h2.6v-11.4c0-1.1,0.2-2.1,0.6-3.1
	c0.4-0.9,0.9-1.8,1.6-2.5c1.5-1.5,3.6-2.4,5.8-2.5V191c-3.6-0.3-6.9,1.9-8.1,5.3h-0.1v-5L134.1,191.3z M190.1,194.3
	c1,1,1.7,2.3,2,3.8h2.6c-0.1-2.2-1.2-4.2-2.8-5.5c-1.7-1.2-3.7-1.9-5.8-1.8c-1.5,0-3,0.3-4.3,0.9c-1.2,0.6-2.3,1.4-3.2,2.4
	c-0.9,1.1-1.6,2.3-2,3.6c-0.9,2.9-0.9,5.9,0,8.8c0.4,1.3,1.1,2.5,2,3.6c0.9,1,2,1.9,3.2,2.4c1.4,0.6,2.8,0.9,4.3,0.9
	c2.2,0.1,4.4-0.7,6-2.2c1.6-1.6,2.6-3.8,2.9-6.1h-2.6c-0.1,0.8-0.3,1.7-0.7,2.4c-0.3,0.7-0.8,1.4-1.4,1.9c-0.5,0.5-1.2,1-1.9,1.3
	c-0.7,0.3-1.5,0.5-2.3,0.5c-1.1,0-2.3-0.3-3.3-0.8c-0.9-0.5-1.7-1.2-2.3-2.1c-0.6-0.9-1.1-1.9-1.4-2.9c-0.6-2.2-0.6-4.5,0-6.7
	c0.3-1,0.8-2,1.4-2.9c0.6-0.9,1.4-1.6,2.3-2.1c1-0.5,2.1-0.8,3.3-0.8C187.5,192.9,189,193.4,190.1,194.3 M214.1,212.8v-21.5h-2.6
	v11.2c0,1.1-0.1,2.1-0.4,3.2c-0.2,1-0.6,1.9-1.2,2.8c-0.5,0.8-1.2,1.5-2,1.9c-0.9,0.5-1.9,0.8-2.9,0.7c-2.1,0-3.5-0.5-4.4-1.5
	c-0.9-1.3-1.4-2.8-1.3-4.4v-14h-2.6v13.9c0,1.1,0.1,2.3,0.4,3.4c0.2,0.9,0.7,1.8,1.3,2.5c0.6,0.7,1.4,1.3,2.3,1.6
	c1.1,0.4,2.3,0.6,3.5,0.6c1.5,0,3-0.4,4.4-1.1c1.3-0.8,2.4-1.9,3-3.3h0.1v3.9L214.1,212.8z M235.9,212.8v-29.7h-2.6v12.3h-0.1
	c-0.3-0.7-0.7-1.4-1.2-2c-0.5-0.6-1.1-1.1-1.8-1.5c-0.7-0.4-1.4-0.7-2.1-0.9c-2.2-0.6-4.5-0.3-6.6,0.6c-1.2,0.6-2.2,1.4-3,2.5
	c-0.8,1.1-1.4,2.3-1.8,3.6c-0.8,2.8-0.8,5.8,0,8.7c0.4,1.3,1,2.5,1.8,3.6c0.8,1,1.8,1.9,3,2.4c1.3,0.6,2.8,0.9,4.2,0.9
	c0.8,0,1.6-0.1,2.4-0.3c0.8-0.2,1.5-0.5,2.2-0.9c0.7-0.4,1.3-0.9,1.9-1.5c0.5-0.6,0.9-1.2,1.2-1.9h0.1v4.1L235.9,212.8z
	 M219.2,205.4c-0.5-2.2-0.5-4.4,0-6.6c0.2-1,0.7-2,1.2-2.9c0.6-0.9,1.3-1.6,2.2-2.1c1-0.6,2.1-0.8,3.2-0.8c1.2,0,2.4,0.2,3.5,0.8
	c0.9,0.5,1.7,1.2,2.3,2.1c0.6,0.9,1,1.9,1.3,2.9c0.5,2.2,0.5,4.4,0,6.6c-0.2,1-0.7,2-1.3,2.9c-0.6,0.9-1.4,1.6-2.3,2.1
	c-1.1,0.6-2.3,0.9-3.5,0.8c-1.1,0-2.2-0.2-3.2-0.8c-0.9-0.5-1.6-1.2-2.2-2.1C219.8,207.4,219.4,206.4,219.2,205.4 M173,194.4
	c0.5,1.1,0.8,2.3,0.7,3.5v14.8h-2.5V209l0,0c-0.4,0.6-0.9,1.3-1.4,1.8c-0.5,0.5-1,1-1.6,1.4c-0.6,0.4-1.3,0.7-2,0.8
	c-0.9,0.2-1.8,0.3-2.7,0.3c-0.9,0-1.9-0.1-2.8-0.4c-0.8-0.2-1.6-0.6-2.3-1.1c-0.7-0.5-1.2-1.2-1.5-1.9c-0.4-0.9-0.6-1.8-0.6-2.8
	c-0.1-1.2,0.3-2.5,1-3.5c0.7-0.9,1.6-1.5,2.6-1.9c1.2-0.5,2.4-0.8,3.7-0.9l4.2-0.5c0.5,0,1-0.1,1.5-0.2c0.4-0.1,0.7-0.2,1-0.4
	c0.3-0.2,0.5-0.5,0.6-0.9c0.2-0.5,0.2-0.9,0.2-1.4c0.1-1.3-0.5-2.5-1.6-3.2c-0.5-0.3-1.1-0.6-1.8-0.7c-0.7-0.1-1.4-0.2-2.2-0.2h-4.8
	V191h5.2c0.9,0,1.8,0.1,2.7,0.3c0.9,0.2,1.8,0.5,2.5,1C172,192.8,172.6,193.5,173,194.4 M171.1,201L171.1,201
	c-0.3,0.3-0.7,0.6-1.1,0.7c-0.4,0.1-0.8,0.2-1.2,0.3c-1.1,0.2-2.2,0.4-3.4,0.5c-1.1,0.1-2.2,0.4-3.2,0.7c-0.9,0.3-1.7,0.7-2.3,1.3
	c-0.6,0.6-1,1.5-0.9,2.4c0,0.6,0.1,1.2,0.4,1.8c0.3,0.5,0.6,1,1.1,1.3c0.4,0.4,1,0.7,1.5,0.9c0.6,0.2,1.2,0.3,1.8,0.3
	c1,0,1.9-0.1,2.9-0.4c0.9-0.3,1.7-0.7,2.4-1.3c0.7-0.6,1.2-1.3,1.6-2.1c0.4-0.9,0.6-1.8,0.6-2.8L171.1,201L171.1,201z M129.6,194.4
	c0.5,1.1,0.8,2.3,0.7,3.5v14.8h-2.5V209l0,0c-0.4,0.6-0.9,1.3-1.4,1.8c-0.5,0.5-1,1-1.6,1.4c-0.6,0.4-1.3,0.7-2,0.8
	c-0.9,0.2-1.8,0.3-2.7,0.3c-0.9,0-1.9-0.1-2.8-0.4c-0.8-0.2-1.6-0.6-2.3-1.1c-0.7-0.5-1.2-1.2-1.5-1.9c-0.4-0.9-0.6-1.8-0.6-2.8
	c-0.1-1.2,0.3-2.5,1-3.5c0.7-0.9,1.6-1.5,2.6-1.9c1.2-0.5,2.4-0.8,3.7-0.9l4.2-0.5c0.6-0.1,1-0.1,1.5-0.2c0.4-0.1,0.7-0.2,1-0.4
	c0.3-0.2,0.5-0.5,0.7-0.9c0.2-0.5,0.2-0.9,0.2-1.4c0-0.6-0.1-1.3-0.4-1.9c-0.3-0.5-0.7-1-1.2-1.4c-0.5-0.3-1.1-0.6-1.8-0.7
	c-0.7-0.1-1.5-0.2-2.2-0.2h-4.7V191h5.1c0.9,0,1.8,0.1,2.7,0.3c0.9,0.2,1.8,0.5,2.5,1C128.5,192.8,129.1,193.5,129.6,194.4
	 M127.6,201L127.6,201c-0.3,0.3-0.7,0.6-1.1,0.7c-0.4,0.1-0.8,0.2-1.2,0.3c-1.1,0.2-2.2,0.4-3.4,0.5c-1.1,0.1-2.2,0.4-3.2,0.7
	c-0.9,0.3-1.6,0.7-2.3,1.4c-0.6,0.6-1,1.5-0.9,2.4c0,0.6,0.1,1.2,0.4,1.8c0.3,0.5,0.6,1,1.1,1.3c0.5,0.4,1,0.7,1.5,0.9
	c0.6,0.2,1.2,0.3,1.8,0.3c1,0,1.9-0.1,2.9-0.4c0.9-0.3,1.7-0.7,2.4-1.3c0.7-0.6,1.2-1.3,1.6-2.1c0.4-0.9,0.6-1.8,0.6-2.8L127.6,201
	L127.6,201z M254.5,194.4c0.5,1.1,0.7,2.3,0.7,3.5v14.8h-2.5V209l0,0c-0.4,0.6-0.9,1.3-1.4,1.8c-0.5,0.5-1,1-1.6,1.4
	c-0.6,0.4-1.3,0.7-2,0.8c-0.9,0.2-1.8,0.3-2.7,0.3c-0.9,0-1.9-0.1-2.8-0.4c-0.8-0.2-1.6-0.6-2.3-1.1c-0.7-0.5-1.2-1.2-1.5-1.9
	c-0.4-0.9-0.6-1.8-0.6-2.8c-0.1-1.2,0.3-2.5,1-3.5c0.7-0.9,1.6-1.5,2.6-1.9c1.2-0.5,2.4-0.8,3.7-0.9c1.4-0.2,2.8-0.4,4.2-0.5
	c0.6-0.1,1-0.1,1.4-0.2c0.4-0.1,0.7-0.2,1-0.4c0.3-0.2,0.5-0.5,0.6-0.9c0.2-0.5,0.2-0.9,0.2-1.4c0-0.6-0.1-1.3-0.4-1.9
	c-0.3-0.5-0.7-1-1.2-1.4c-0.5-0.3-1.2-0.6-1.8-0.7c-0.7-0.1-1.4-0.2-2.2-0.2h-4.7V191h5.2c0.9,0,1.8,0.1,2.7,0.3
	c0.9,0.2,1.8,0.5,2.5,1C253.5,192.8,254.1,193.5,254.5,194.4 M252.6,201h-0.1c-0.2,0.3-0.6,0.6-1,0.7c-0.4,0.1-0.8,0.2-1.2,0.3
	c-1.1,0.2-2.2,0.4-3.4,0.5c-1.1,0.1-2.2,0.4-3.2,0.7c-0.9,0.3-1.7,0.7-2.4,1.3c-0.6,0.6-1,1.5-0.9,2.4c0,0.6,0.1,1.2,0.4,1.8
	c0.2,0.5,0.6,0.9,1,1.3c0.5,0.4,1,0.7,1.5,0.9c0.6,0.2,1.2,0.3,1.8,0.3c1,0,1.9-0.1,2.9-0.4c0.9-0.3,1.7-0.7,2.4-1.3
	c1.4-1.2,2.3-3,2.2-4.9V201L252.6,201z M87.5,182.2v30.5h12.9c1.4,0,2.9-0.1,4.2-0.4c1-0.2,2.1-0.6,3-1.1c0.8-0.4,1.4-1,2-1.6
	c0.5-0.6,0.8-1.2,1.1-1.9c0.2-0.6,0.4-1.2,0.5-1.9c0.1-0.5,0.1-1.1,0.1-1.6c0.1-1.8-0.6-3.6-1.8-5c-1.2-1.4-2.9-2.2-4.7-2.4v-0.1
	c0.8-0.2,1.5-0.5,2.2-0.9c0.6-0.4,1.2-1,1.7-1.6c0.5-0.6,0.9-1.3,1.1-2.1c0.3-0.8,0.4-1.5,0.4-2.3c0-1.2-0.2-2.5-0.8-3.6
	c-0.5-0.9-1.3-1.7-2.2-2.3c-1-0.6-2-1-3.1-1.2c-1.2-0.2-2.5-0.4-3.7-0.4L87.5,182.2z M90.4,195.6v-10.9h10c4.6,0,6.9,1.9,6.9,5.7
	c0,0.7-0.1,1.4-0.4,2c-0.3,0.6-0.7,1.2-1.3,1.6c-0.6,0.5-1.4,0.9-2.1,1.1c-1,0.3-2,0.4-3,0.4L90.4,195.6L90.4,195.6z M90.4,210.3
	v-12.2h10c2.1-0.1,4.2,0.4,6,1.5c1.4,1,2.2,2.7,2.1,4.4c0,1.1-0.2,2.1-0.6,3.1c-0.4,0.8-1,1.5-1.8,1.9c-0.8,0.5-1.6,0.8-2.6,1
	c-1,0.2-2,0.3-3.1,0.3H90.4L90.4,210.3z M260.2,211.7h-0.5v-3.1h1.2c0.3,0,0.6,0.1,0.8,0.2c0.2,0.2,0.3,0.4,0.3,0.7
	c0,0.2-0.1,0.5-0.2,0.6c-0.2,0.1-0.4,0.2-0.6,0.2l0.9,1.4h-0.6l-0.8-1.3h-0.5L260.2,211.7L260.2,211.7z M260.8,210h0.3
	c0.1,0,0.2,0,0.2-0.1c0.1,0,0.1-0.1,0.1-0.1c0-0.1,0.1-0.2,0-0.3c0-0.1,0-0.2-0.1-0.2c0-0.1-0.1-0.1-0.2-0.1c-0.1,0-0.1-0.1-0.2-0.1
	h-0.8v0.9L260.8,210z M260.8,212.9c-1.5,0-2.7-1.2-2.7-2.7c0-1.5,1.2-2.7,2.7-2.7c1.5,0,2.7,1.2,2.7,2.7c0,0,0,0,0,0
	C263.5,211.6,262.3,212.9,260.8,212.9C260.8,212.9,260.8,212.9,260.8,212.9L260.8,212.9z M260.8,207.7c-1.3,0-2.4,1.1-2.4,2.4
	s1.1,2.4,2.4,2.4c1.3,0,2.4-1.1,2.4-2.4v0C263.2,208.8,262.1,207.7,260.8,207.7C260.8,207.7,260.8,207.7,260.8,207.7L260.8,207.7z"
	/>
</svg>
